<svg width="55" height="83" viewBox="0 0 55 83" fill="none" xmlns="http://www.w3.org/2000/svg">
<mask id="path-1-inside-1_120_6" fill="white">
<path fill-rule="evenodd" clip-rule="evenodd" d="M55 73V65C55 59.4772 50.5228 55 45 55H10C4.47717 55 0 59.4772 0 65V73C0 78.5228 4.47717 83 10 83H45C50.5228 83 55 78.5228 55 73ZM55 20V49H10C4.47717 49 0 44.5228 0 39V30C0 24.4772 4.47717 20 10 20H55ZM55 0V14H42C38.134 14 35 10.866 35 7C35 3.134 38.134 0 42 0H55ZM7 14C10.866 14 14 10.866 14 7C14 3.134 10.866 0 7 0C3.13403 0 0 3.134 0 7C0 10.866 3.13403 14 7 14ZM32 7C32 10.866 28.866 14 25 14C21.134 14 18 10.866 18 7C18 3.134 21.134 0 25 0C28.866 0 32 3.134 32 7Z"/>
</mask>
<path d="M55 20H56V19H55V20ZM55 49V50H56V49H55ZM55 0H56V-1H55V0ZM55 14V15H56V14H55ZM54 65V73H56V65H54ZM45 56C49.9705 56 54 60.0294 54 65H56C56 58.9249 51.0751 54 45 54V56ZM10 56H45V54H10V56ZM1 65C1 60.0294 5.02946 56 10 56V54C3.92489 54 -1 58.9249 -1 65H1ZM1 73V65H-1V73H1ZM10 82C5.02946 82 1 77.9706 1 73H-1C-1 79.0751 3.92489 84 10 84V82ZM45 82H10V84H45V82ZM54 73C54 77.9706 49.9705 82 45 82V84C51.0751 84 56 79.0751 56 73H54ZM54 20V49H56V20H54ZM10 50H55V48H10V50ZM-1 39C-1 45.0751 3.92489 50 10 50V48C5.02946 48 1 43.9706 1 39H-1ZM-1 30V39H1V30H-1ZM10 19C3.92489 19 -1 23.9249 -1 30H1C1 25.0294 5.02946 21 10 21V19ZM55 19H10V21H55V19ZM54 0V14H56V0H54ZM42 15H55V13H42V15ZM34 7C34 11.4183 37.5818 15 42 15V13C38.6863 13 36 10.3137 36 7H34ZM42 -1C37.5818 -1 34 2.58172 34 7H36C36 3.68629 38.6863 1 42 1V-1ZM55 -1H42V1H55V-1ZM13 7C13 10.3137 10.3137 13 7 13V15C11.4182 15 15 11.4183 15 7H13ZM7 1C10.3137 1 13 3.68629 13 7H15C15 2.58172 11.4182 -1 7 -1V1ZM1 7C1 3.68629 3.68632 1 7 1V-1C2.58175 -1 -1 2.58172 -1 7H1ZM7 13C3.68632 13 1 10.3137 1 7H-1C-1 11.4183 2.58175 15 7 15V13ZM25 15C29.4182 15 33 11.4183 33 7H31C31 10.3137 28.3137 13 25 13V15ZM17 7C17 11.4183 20.5818 15 25 15V13C21.6863 13 19 10.3137 19 7H17ZM25 -1C20.5818 -1 17 2.58172 17 7H19C19 3.68629 21.6863 1 25 1V-1ZM33 7C33 2.58172 29.4182 -1 25 -1V1C28.3137 1 31 3.68629 31 7H33Z" fill="black" mask="url(#path-1-inside-1_120_6)"/>
</svg>
