<svg width="95" height="83" viewBox="0 0 95 83" fill="none" xmlns="http://www.w3.org/2000/svg">
<path fill-rule="evenodd" clip-rule="evenodd" d="M42 0C38.134 0 35 3.134 35 7C35 10.866 38.134 14 42 14H88C91.866 14 95 10.866 95 7C95 3.134 91.866 0 88 0H42ZM10 20C4.47717 20 0 24.4772 0 30V39C0 44.5228 4.47717 49 10 49H85C90.5228 49 95 44.5228 95 39V30C95 24.4772 90.5228 20 85 20H10ZM0 65C0 59.4772 4.47717 55 10 55H45C50.5228 55 55 59.4772 55 65V73C55 78.5228 50.5228 83 45 83H10C4.47717 83 0 78.5228 0 73V65ZM70 55C64.4772 55 60 59.4772 60 65V73C60 78.5228 64.4772 83 70 83H85C90.5228 83 95 78.5228 95 73V65C95 59.4772 90.5228 55 85 55H70ZM14 7C14 10.866 10.866 14 7 14C3.13403 14 0 10.866 0 7C0 3.134 3.13403 0 7 0C10.866 0 14 3.134 14 7ZM25 14C28.866 14 32 10.866 32 7C32 3.134 28.866 0 25 0C21.134 0 18 3.134 18 7C18 10.866 21.134 14 25 14Z" fill="black" fill-opacity="0.05"/>
</svg>
