<svg width="170" height="67" viewBox="0 0 170 67" fill="none" xmlns="http://www.w3.org/2000/svg">
<path d="M60.2223 54.068L59.4494 53.1088L58.6696 54.0623C52.708 61.3507 43.6473 66 33.5 66C15.5507 66 1 51.4492 1 33.5C1 15.5508 15.5507 1 33.5 1C43.6473 1 52.708 5.64931 58.6696 12.9377L59.4494 13.8912L60.2223 12.932C66.0943 5.64428 75.0146 1 85 1C94.9854 1 103.906 5.64428 109.778 12.932L110.551 13.8912L111.33 12.9377C117.292 5.64931 126.353 1 136.5 1C154.449 1 169 15.5508 169 33.5C169 51.4492 154.449 66 136.5 66C126.353 66 117.292 61.3507 111.33 54.0623L110.551 53.1088L109.778 54.068C103.906 61.3557 94.9854 66 85 66C75.0146 66 66.0943 61.3557 60.2223 54.068Z" stroke="#96F5DB" stroke-width="2"/>
</svg>
