<svg width="119" height="71" viewBox="0 0 119 71" fill="none" xmlns="http://www.w3.org/2000/svg">
<path fill-rule="evenodd" clip-rule="evenodd" d="M57 5.42021e-06C56.4477 5.42021e-06 56 0.447721 56 1.00001C56 1.55229 56.4477 2.00001 57 2.00001L118 2C118.552 2 119 1.55228 119 1C119 0.447715 118.552 -4.82819e-08 118 0L57 5.42021e-06ZM1 23C0.447715 23 0 23.4477 0 24C0 24.5523 0.447715 25 1 25H118C118.552 25 119 24.5523 119 24C119 23.4477 118.552 23 118 23H1ZM0 47C0 46.4477 0.447715 46 1 46H118C118.552 46 119 46.4477 119 47C119 47.5523 118.552 48 118 48H1C0.447715 48 0 47.5523 0 47ZM1 69C0.447715 69 0 69.4477 0 70C0 70.5523 0.447715 71 1 71H118C118.552 71 119 70.5523 119 70C119 69.4477 118.552 69 118 69H1Z" fill="#CECECE"/>
</svg>
