<svg width="103" height="63" viewBox="0 0 103 63" fill="none" xmlns="http://www.w3.org/2000/svg">
<path fill-rule="evenodd" clip-rule="evenodd" d="M77.9458 2.00108C70.6079 2.06172 62.6467 4.67532 51.4154 9.80384C40.7643 14.6674 29.1671 14.9709 19.675 13.0557C14.9261 12.0975 10.6757 10.5787 7.30789 8.77293C3.96724 6.98176 1.3889 4.85113 0.128418 2.61028L1.87157 1.62976C2.86109 3.38889 5.05286 5.2945 8.25296 7.01031C11.4259 8.71156 15.487 10.1704 20.0706 11.0952C29.2438 12.9461 40.3965 12.6367 50.5846 7.98453C61.8533 2.83894 70.1421 0.065501 77.9292 0.00114716C85.7542 -0.0635189 92.941 2.60566 102.014 8.03615L100.986 9.75222C92.059 4.40862 85.2458 1.94075 77.9458 2.00108ZM77.9458 26.1212C70.6079 26.1818 62.6467 28.7954 51.4154 33.924C40.7643 38.7875 29.1671 39.091 19.675 37.1758C14.9261 36.2177 10.6757 34.6988 7.30789 32.893C3.96724 31.1019 1.3889 28.9712 0.128418 26.7304L1.87157 25.7499C2.86109 27.509 5.05286 29.4146 8.25296 31.1304C11.4259 32.8317 15.487 34.2905 20.0706 35.2154C29.2438 37.0662 40.3965 36.7568 50.5846 32.1046C61.8533 26.9591 70.1421 24.1856 77.9292 24.1213C85.7542 24.0566 92.941 26.7258 102.014 32.1563L100.986 33.8723C92.059 28.5287 85.2458 26.0609 77.9458 26.1212ZM51.4154 58.0441C62.6467 52.9156 70.6079 50.302 77.9458 50.2413C85.2458 50.181 92.059 52.6489 100.986 57.9925L102.014 56.2764C92.941 50.8459 85.7542 48.1767 77.9292 48.2414C70.1421 48.3057 61.8533 51.0792 50.5846 56.2248C40.3965 60.8769 29.2438 61.1863 20.0706 59.3355C15.487 58.4106 11.4259 56.9518 8.25296 55.2505C5.05286 53.5347 2.86109 51.6291 1.87157 49.87L0.128418 50.8505C1.3889 53.0914 3.96724 55.222 7.30789 57.0132C10.6757 58.8189 14.9261 60.3378 19.675 61.296C29.1671 63.2111 40.7643 62.9076 51.4154 58.0441Z" fill="#DCF6FF"/>
</svg>
