<svg width="793" height="182" viewBox="0 0 793 182" fill="none" xmlns="http://www.w3.org/2000/svg">
<path fill-rule="evenodd" clip-rule="evenodd" d="M3.04921 181.84H0.306763C10.951 170.416 22.9551 159.564 36.0213 149.668C74.2693 120.7 121.703 99.8564 170.939 96.842C228.055 93.3451 282.465 102.689 335.31 114.164C347.366 116.782 359.338 119.51 371.241 122.223C411.548 131.408 451.068 140.414 490.436 144.363C541.391 149.473 591.998 146.096 643.508 123.649C692.126 102.462 741.626 64.2514 793 0V3.19527C742.032 66.4634 692.798 104.351 644.307 125.482C592.395 148.105 541.421 151.486 490.237 146.353C450.733 142.391 411.048 133.347 370.717 124.155C358.833 121.447 346.893 118.726 334.885 116.118C282.083 104.652 227.893 95.3588 171.061 98.8383C122.297 101.824 75.2307 122.481 37.2288 151.262C24.7659 160.701 13.2872 171.007 3.04921 181.84Z" fill="#85DCC4"/>
</svg>
